<svg width="336" height="325" viewBox="0 0 336 325" fill="none" xmlns="http://www.w3.org/2000/svg">
<path d="M282 111H29.9265H0V219.598C12.431 290.727 65.8 306.816 90.9306 305.969H188.767C258.404 305.969 278.931 249.659 282 219.598V111Z" fill="#4E2A09"/>
<path d="M262 160H321C328 192.333 323.6 257 250 257" stroke="#4E2A09" stroke-width="25"/>
<rect y="293" width="282" height="32" rx="16" fill="#4E2A09"/>
<path d="M177.315 12.843C163.266 -2.65379 148.046 8.34268 142.192 15.778C136.143 9.90801 122.485 0.199203 107.5 11C92.5138 21.8008 101.8 41.2147 109.41 49.237L140.436 78L172.632 49.237C180.046 43.5627 191.364 28.3398 177.315 12.843Z" stroke="#4E2A09" stroke-width="10"/>
</svg>
